<mxfile host="app.diagrams.net" modified="2024-05-25T16:01:02.490Z" agent="Mozilla/5.0 (Windows NT 10.0; Win64; x64) AppleWebKit/537.36 (KHTML, like Gecko) Chrome/125.0.0.0 Safari/537.36" version="24.4.8" etag="dGFEfJiG5MxaJAVyFfK0" type="github">
  <diagram name="Страница — 1" id="4SITpsjYMRQty57aMmcr">
    <mxGraphModel>
      <root>
        <mxCell id="0" />
        <mxCell id="1" parent="0" />
      </root>
    </mxGraphModel>
  </diagram>
</mxfile>
